<svg xmlns="http://www.w3.org/2000/svg" width="24" height="24" viewBox="0 0 24 24" fill="none">
  <path d="M5.25 11.25H20.25C20.4489 11.25 20.6397 11.329 20.7803 11.4697C20.921 11.6103 21 11.8011 21 12C21 12.1989 20.921 12.3897 20.7803 12.5303C20.6397 12.671 20.4489 12.75 20.25 12.75H5.25C5.05109 12.75 4.86032 12.671 4.71967 12.5303C4.57902 12.3897 4.5 12.1989 4.5 12C4.5 11.8011 4.57902 11.6103 4.71967 11.4697C4.86032 11.329 5.05109 11.25 5.25 11.25Z" fill="#56D963"/>
  <path d="M5.56086 12.0009L11.7814 18.2199C11.9222 18.3608 12.0013 18.5518 12.0013 18.7509C12.0013 18.9501 11.9222 19.1411 11.7814 19.2819C11.6405 19.4228 11.4495 19.5019 11.2504 19.5019C11.0512 19.5019 10.8602 19.4228 10.7194 19.2819L3.96936 12.5319C3.89952 12.4623 3.84411 12.3795 3.8063 12.2884C3.76849 12.1973 3.74902 12.0996 3.74902 12.0009C3.74902 11.9023 3.76849 11.8046 3.8063 11.7135C3.84411 11.6224 3.89952 11.5396 3.96936 11.4699L10.7194 4.71995C10.8602 4.57912 11.0512 4.5 11.2504 4.5C11.4495 4.5 11.6405 4.57912 11.7814 4.71995C11.9222 4.86078 12.0013 5.05178 12.0013 5.25095C12.0013 5.45011 11.9222 5.64112 11.7814 5.78195L5.56086 12.0009Z" fill="#56D963"/>
</svg>