<svg width="48" height="48" viewBox="0 0 48 48" fill="none" xmlns="http://www.w3.org/2000/svg">
<g id="mail-05">
<path id="Icon" d="M27.4879 5.26633L42.5439 15.0528C43.0759 15.3986 43.342 15.5715 43.5347 15.8021C43.7053 16.0063 43.8334 16.2424 43.9116 16.4967C44 16.784 44 17.1013 44 17.7358V32.3992C44 35.7595 44 37.4396 43.346 38.7231C42.7708 39.8521 41.8529 40.77 40.7239 41.3452C39.4404 41.9992 37.7603 41.9992 34.4 41.9992H13.6C10.2397 41.9992 8.5595 41.9992 7.27603 41.3452C6.14706 40.77 5.22918 39.8521 4.65394 38.7231C3.99998 37.4396 3.99998 35.7595 3.99998 32.3992V17.7358C3.99998 17.1013 3.99998 16.784 4.08832 16.4967C4.16652 16.2424 4.29467 16.0063 4.46527 15.8021C4.658 15.5715 4.924 15.3986 5.45601 15.0528L20.512 5.26633M27.4879 5.26633C26.2254 4.44571 25.5942 4.0354 24.914 3.87576C24.3128 3.73464 23.6871 3.73464 23.0859 3.87576C22.4058 4.0354 21.7745 4.44571 20.512 5.26633M27.4879 5.26633L39.8722 13.3162C41.2479 14.2104 41.9358 14.6575 42.174 15.2245C42.3822 15.72 42.3822 16.2784 42.174 16.7739C41.9358 17.3409 41.2479 17.788 39.8722 18.6822L27.4879 26.732C26.2254 27.5526 25.5942 27.963 24.914 28.1226C24.3128 28.2637 23.6871 28.2637 23.0859 28.1226C22.4058 27.963 21.7745 27.5526 20.512 26.732L8.1277 18.6822C6.752 17.788 6.06416 17.3409 5.82592 16.7739C5.61773 16.2784 5.61773 15.72 5.82592 15.2245C6.06416 14.6575 6.752 14.2104 8.1277 13.3162L20.512 5.26633M43 37.9992L29.7143 25.9992M18.2856 25.9992L4.99998 37.9992" stroke="#56D863" stroke-width="2" stroke-linecap="round" stroke-linejoin="round"/>
</g>
</svg>
