<svg width="56" height="56" viewBox="0 0 56 56" fill="none" xmlns="http://www.w3.org/2000/svg">
<rect x="4" y="4" width="48" height="48" rx="24" fill="#D6FFDA"/>
<rect x="4" y="4" width="48" height="48" rx="24" stroke="#D7F5DA" stroke-width="8"/>
<path d="M27 20H23.8C22.1198 20 21.2798 20 20.638 20.327C20.0735 20.6146 19.6146 21.0735 19.327 21.638C19 22.2798 19 23.1198 19 24.8V30C19 30.93 19 31.395 19.1022 31.7765C19.3796 32.8117 20.1883 33.6204 21.2235 33.8978C21.605 34 22.07 34 23 34V36.3355C23 36.8684 23 37.1348 23.1092 37.2716C23.2042 37.3906 23.3483 37.4599 23.5005 37.4597C23.6756 37.4595 23.8837 37.2931 24.2998 36.9602L26.6852 35.0518C27.1725 34.662 27.4162 34.4671 27.6875 34.3285C27.9282 34.2055 28.1844 34.1156 28.4492 34.0613C28.7477 34 29.0597 34 29.6837 34H31.2C32.8802 34 33.7202 34 34.362 33.673C34.9265 33.3854 35.3854 32.9265 35.673 32.362C36 31.7202 36 30.8802 36 29.2V29M36.1213 19.8787C37.2929 21.0503 37.2929 22.9497 36.1213 24.1213C34.9497 25.2929 33.0503 25.2929 31.8787 24.1213C30.7071 22.9497 30.7071 21.0503 31.8787 19.8787C33.0503 18.7071 34.9497 18.7071 36.1213 19.8787Z" stroke="#56D863" stroke-width="2" stroke-linecap="round" stroke-linejoin="round"/>
</svg>
