<svg width="56" height="56" viewBox="0 0 56 56" fill="none" xmlns="http://www.w3.org/2000/svg">
<rect x="4" y="4" width="48" height="48" rx="24" fill="#D6FFDA"/>
<rect x="4" y="4" width="48" height="48" rx="24" stroke="#D7F5DA" stroke-width="8"/>
<path d="M28 28H28.005M33 28H33.005M23 28H23.005M21.2 23H34.8C35.9201 23 36.4802 23 36.908 23.218C37.2843 23.4097 37.5903 23.7157 37.782 24.092C38 24.5198 38 25.0799 38 26.2V29.8C38 30.9201 38 31.4802 37.782 31.908C37.5903 32.2843 37.2843 32.5903 36.908 32.782C36.4802 33 35.9201 33 34.8 33H21.2C20.0799 33 19.5198 33 19.092 32.782C18.7157 32.5903 18.4097 32.2843 18.218 31.908C18 31.4802 18 30.9201 18 29.8V26.2C18 25.0799 18 24.5198 18.218 24.092C18.4097 23.7157 18.7157 23.4097 19.092 23.218C19.5198 23 20.0799 23 21.2 23ZM28.25 28C28.25 28.1381 28.1381 28.25 28 28.25C27.8619 28.25 27.75 28.1381 27.75 28C27.75 27.8619 27.8619 27.75 28 27.75C28.1381 27.75 28.25 27.8619 28.25 28ZM33.25 28C33.25 28.1381 33.1381 28.25 33 28.25C32.8619 28.25 32.75 28.1381 32.75 28C32.75 27.8619 32.8619 27.75 33 27.75C33.1381 27.75 33.25 27.8619 33.25 28ZM23.25 28C23.25 28.1381 23.1381 28.25 23 28.25C22.8619 28.25 22.75 28.1381 22.75 28C22.75 27.8619 22.8619 27.75 23 27.75C23.1381 27.75 23.25 27.8619 23.25 28Z" stroke="#56D863" stroke-width="2" stroke-linecap="round" stroke-linejoin="round"/>
</svg>
