<svg width="48" height="48" viewBox="0 0 48 48" fill="none" xmlns="http://www.w3.org/2000/svg">
<g id="phone-01">
<path id="Icon" d="M24.0002 35.0031H24.0202M16.4002 44.0031H31.6002C33.8404 44.0031 34.9605 44.0031 35.8161 43.5672C36.5688 43.1837 37.1807 42.5717 37.5642 41.8191C38.0002 40.9634 38.0002 39.8433 38.0002 37.6031V10.4031C38.0002 8.16292 38.0002 7.04281 37.5642 6.18717C37.1807 5.43452 36.5688 4.8226 35.8161 4.4391C34.9605 4.00313 33.8404 4.00313 31.6002 4.00313H16.4002C14.16 4.00313 13.0399 4.00313 12.1842 4.4391C11.4316 4.8226 10.8197 5.43452 10.4362 6.18717C10.0002 7.04281 10.0002 8.16292 10.0002 10.4031V37.6031C10.0002 39.8433 10.0002 40.9634 10.4362 41.8191C10.8197 42.5717 11.4316 43.1837 12.1842 43.5672C13.0399 44.0031 14.16 44.0031 16.4002 44.0031ZM25.0002 35.0031C25.0002 35.5554 24.5525 36.0031 24.0002 36.0031C23.4479 36.0031 23.0002 35.5554 23.0002 35.0031C23.0002 34.4508 23.4479 34.0031 24.0002 34.0031C24.5525 34.0031 25.0002 34.4508 25.0002 35.0031Z" stroke="#56D863" stroke-width="2" stroke-linecap="round" stroke-linejoin="round"/>
</g>
</svg>
